<?xml version="1.0" encoding="UTF-8"?>
<svg xmlns="http://www.w3.org/2000/svg" xmlns:xlink="http://www.w3.org/1999/xlink" width="25px" height="25px" viewBox="0 0 25 25" version="1.1">
<g id="surface1">
<path style=" stroke:none;fill-rule:nonzero;fill:rgb(0%,0%,0%);fill-opacity:1;" d="M 21.808594 15.515625 C 21.414062 16.636719 20.359375 17.390625 19.183594 17.390625 L 8.140625 17.390625 C 6.816406 17.390625 5.671875 16.433594 5.414062 15.113281 L 3.539062 5.511719 L 2.921875 2.632812 L 0.847656 2.632812 C 0.515625 2.632812 0.25 2.363281 0.25 2.03125 C 0.25 1.695312 0.515625 1.425781 0.847656 1.425781 L 3.398438 1.425781 C 3.496094 1.441406 3.53125 1.449219 3.574219 1.460938 C 3.609375 1.472656 3.640625 1.484375 3.671875 1.503906 C 3.707031 1.519531 3.738281 1.542969 3.765625 1.566406 C 3.796875 1.59375 3.824219 1.617188 3.851562 1.648438 C 3.871094 1.675781 3.890625 1.707031 3.910156 1.738281 C 3.929688 1.773438 3.949219 1.8125 3.960938 1.851562 C 3.964844 1.871094 3.976562 1.886719 3.984375 1.902344 L 4.601562 4.785156 L 22.773438 4.785156 C 23.414062 4.785156 24.015625 5.101562 24.386719 5.628906 C 24.757812 6.160156 24.851562 6.84375 24.636719 7.453125 Z M 23.414062 6.324219 C 23.265625 6.113281 23.035156 5.988281 22.777344 5.988281 L 4.851562 5.988281 L 6.582031 14.878906 C 6.730469 15.632812 7.386719 16.179688 8.140625 16.179688 L 19.183594 16.179688 C 19.859375 16.179688 20.460938 15.75 20.683594 15.109375 L 23.511719 7.046875 C 23.601562 6.800781 23.566406 6.539062 23.414062 6.324219 Z M 7.710938 18.703125 C 9.039062 18.703125 10.113281 19.796875 10.113281 21.136719 C 10.113281 22.484375 9.035156 23.574219 7.710938 23.574219 C 6.386719 23.574219 5.304688 22.484375 5.304688 21.136719 C 5.304688 19.796875 6.382812 18.703125 7.710938 18.703125 Z M 7.710938 22.367188 C 8.378906 22.367188 8.921875 21.816406 8.921875 21.140625 C 8.921875 20.460938 8.378906 19.914062 7.710938 19.914062 C 7.042969 19.914062 6.5 20.460938 6.5 21.140625 C 6.496094 21.816406 7.039062 22.367188 7.710938 22.367188 Z M 18.335938 18.703125 C 19.664062 18.703125 20.742188 19.796875 20.742188 21.136719 C 20.742188 22.484375 19.664062 23.574219 18.335938 23.574219 C 17.011719 23.574219 15.933594 22.484375 15.933594 21.136719 C 15.933594 19.796875 17.011719 18.703125 18.335938 18.703125 Z M 18.335938 22.367188 C 19.007812 22.367188 19.550781 21.816406 19.550781 21.140625 C 19.550781 20.460938 19.003906 19.914062 18.335938 19.914062 C 17.671875 19.914062 17.125 20.460938 17.125 21.140625 C 17.128906 21.816406 17.671875 22.367188 18.335938 22.367188 Z M 18.335938 22.367188 "/>
</g>
</svg>
